<svg xmlns="http://www.w3.org/2000/svg" viewBox="0 0 64 64">
  <rect width="64" height="64" rx="16" fill="#f8faf9"/>
  <path d="M18 36c-5.2 0-9-3.5-9-8.3C9 22.8 13 19 18.3 19h27.4C51 19 55 22.8 55 27.7c0 4.8-3.8 8.3-9 8.3h-7.5L30 44.5V36H18Z" fill="#ffffff" stroke="#287c7b" stroke-width="4" stroke-linejoin="round"/>
  <path d="M21 28h22" stroke="#d9e5e2" stroke-width="4" stroke-linecap="round"/>
  <path d="M23 22 31 28 23 34" fill="none" stroke="#202124" stroke-width="4" stroke-linecap="round" stroke-linejoin="round"/>
  <path d="M41 22 33 28 41 34" fill="none" stroke="#202124" stroke-width="4" stroke-linecap="round" stroke-linejoin="round"/>
  <circle cx="18" cy="46" r="5" fill="#287c7b"/>
  <circle cx="32" cy="52" r="5" fill="#287c7b"/>
  <circle cx="46" cy="46" r="5" fill="#287c7b"/>
  <path d="M22.5 47.8 27.5 50.2M36.5 50.2 41.5 47.8" stroke="#287c7b" stroke-width="3" stroke-linecap="round"/>
  <circle cx="49" cy="17" r="9" fill="#f2c14e"/>
  <path d="M45 17.4 48 20l5.5-6.5" fill="none" stroke="#202124" stroke-width="3" stroke-linecap="round" stroke-linejoin="round"/>
</svg>
